<svg width="150" height="150" viewBox="0 0 150 150" fill="none" xmlns="http://www.w3.org/2000/svg">
<g clip-path="url(#clip0)">
<circle cx="75.5" cy="75.5" r="23.5" stroke="#6366F1" stroke-width="4"/>
<circle cx="78" cy="70" r="34" stroke="#6366F1" stroke-width="4"/>
<circle cx="73" cy="78" r="65" stroke="#6366F1" stroke-width="4"/>
<path d="M75.5 50.5L74.5 35M93 58L103.5 45.5M95.5 88.5L103.5 95M69 99.5L67 104M55 42.5L39.5 21M82.5 35L87 13M120.5 31.5L104.5 46.5" stroke="#6366F1" stroke-width="4"/>
<path d="M42.5 70L7.5 69" stroke="#6366F1" stroke-width="4"/>
<path d="M46 84.5L12 103M61.5 101L40.5 136" stroke="#6366F1" stroke-width="4"/>
<path d="M109 84.5L169 112.5" stroke="#6366F1" stroke-width="4"/>
<path d="M76.5 104L80 166.5" stroke="#6366F1" stroke-width="4"/>
<path d="M77.5 82L49.5 -11" stroke="#6366F1" stroke-width="4"/>
<path d="M77 82L-34 -4.5" stroke="#6366F1" stroke-width="4"/>
<path d="M77.5 81.5L167 28" stroke="#6366F1" stroke-width="4"/>
<path d="M77.5 81.5L159 168" stroke="#6366F1" stroke-width="4"/>
<path d="M77 82L48 180.5" stroke="#6366F1" stroke-width="4"/>
</g>
</svg>
